<svg xmlns="http://www.w3.org/2000/svg" viewBox="0 0 64 64" id="wps-office">
  <path fill="#f74536" fill-rule="evenodd" d="m60,12c0-4.42-3.58-8-8-8H12c-4.42,0-8,3.58-8,8v40c0,4.42,3.58,8,8,8h40c4.42,0,8-3.58,8-8V12h0Z"></path>
  <path fill="#fff" fill-rule="evenodd" d="m27.69,46.42l12.1-22.42h5.57l-6.58,14.29-2.4-4.44-3.46,6.23,3.43,6.35c.54,1,1.6,1.61,2.73,1.57,1.14-.04,2.15-.71,2.63-1.74l11.05-24c.43-.93.35-2.01-.2-2.87-.55-.86-1.5-1.38-2.53-1.38h-12.05c-1.1,0-2.12.6-2.64,1.57l-10.09,18.7-6.54-14.28h5.53l3.34,6.18,3.46-6.22-2.36-4.38c-.52-.97-1.54-1.57-2.64-1.57h-12c-1.02,0-1.97.52-2.52,1.38-.55.86-.63,1.94-.2,2.87l11,24c.47,1.04,1.49,1.71,2.63,1.75,1.14.04,2.2-.57,2.74-1.57h0Z"></path>
</svg>
